<?xml version="1.0" standalone="no"?><!DOCTYPE svg PUBLIC "-//W3C//DTD SVG 1.1//EN" "http://www.w3.org/Graphics/SVG/1.1/DTD/svg11.dtd"><svg t="1661389495512" class="icon" viewBox="0 0 1024 1024" version="1.1" xmlns="http://www.w3.org/2000/svg" p-id="16544" xmlns:xlink="http://www.w3.org/1999/xlink" width="24" height="24"><defs><style type="text/css">@font-face { font-family: feedback-iconfont; src: url("//at.alicdn.com/t/font_1031158_u69w8yhxdu.woff2?t=1630033759944") format("woff2"), url("//at.alicdn.com/t/font_1031158_u69w8yhxdu.woff?t=1630033759944") format("woff"), url("//at.alicdn.com/t/font_1031158_u69w8yhxdu.ttf?t=1630033759944") format("truetype"); }
</style></defs><path d="M512 988.16c-262.826667 0-477.866667-215.04-477.866667-477.866667s215.04-477.866667 477.866667-477.866666 477.866667 215.04 477.866667 477.866666-213.333333 477.866667-477.866667 477.866667z m0-904.533333c-235.52 0-426.666667 191.146667-426.666667 426.666666s191.146667 426.666667 426.666667 426.666667 426.666667-191.146667 426.666667-426.666667-191.146667-426.666667-426.666667-426.666666z" fill="#ee3837" p-id="16545"></path><path d="M692.906667 512c-6.826667 0-13.653333-1.706667-18.773334-6.826667l-68.266666-68.266666c-10.24-10.24-10.24-25.6 0-35.84l68.266666-68.266667c10.24-10.24 25.6-10.24 35.84 0s10.24 25.6 0 35.84l-49.493333 49.493333 49.493333 49.493334c10.24 10.24 10.24 25.6 0 35.84-3.413333 6.826667-10.24 8.533333-17.066666 8.533333zM331.093333 512c-6.826667 0-13.653333-1.706667-18.773333-6.826667-10.24-10.24-10.24-25.6 0-35.84l49.493333-49.493333-49.493333-49.493333c-10.24-10.24-10.24-25.6 0-35.84 10.24-10.24 25.6-10.24 35.84 0l68.266667 68.266666c5.12 5.12 6.826667 11.946667 6.826666 18.773334s-3.413333 13.653333-6.826666 18.773333l-68.266667 68.266667c-3.413333 1.706667-10.24 3.413333-17.066667 3.413333zM648.533333 761.173333c-6.826667 0-13.653333-3.413333-18.773333-6.826666L580.266667 704.853333l-49.493334 49.493334c-10.24 10.24-27.306667 10.24-35.84 0l-49.493333-49.493334-49.493333 49.493334c-10.24 10.24-27.306667 10.24-35.84 0l-68.266667-68.266667c-10.24-10.24-10.24-25.6 0-35.84s25.6-10.24 35.84 0l49.493333 49.493333 49.493334-49.493333c10.24-10.24 27.306667-10.24 35.84 0L512 699.733333l49.493333-49.493333c10.24-10.24 27.306667-10.24 35.84 0l51.2 49.493333 49.493334-49.493333c10.24-10.24 25.6-10.24 35.84 0s10.24 25.6 0 35.84l-68.266667 68.266667c-3.413333 5.12-10.24 6.826667-17.066667 6.826666z" fill="#ee3837" p-id="16546"></path></svg>