<svg class="icon" viewBox="0 0 1024 1024" xmlns="http://www.w3.org/2000/svg" width="24" height="24">
    <path d="M512 989.867c-262.827 0-477.867-215.04-477.867-477.867S249.173 34.133 512 34.133 989.867 249.173 989.867 512 774.827 989.867 512 989.867zm0-904.534C276.48 85.333 85.333 276.48 85.333 512S276.48 938.667 512 938.667 938.667 747.52 938.667 512 747.52 85.333 512 85.333z"
          fill="#ffb02a"/>
    <path d="M715.093 559.787c-3.413 0-8.533-1.707-11.946-3.414L614.4 512c-11.947-6.827-17.067-22.187-11.947-34.133 6.827-11.947 22.187-17.067 34.134-11.947l90.453 44.373c11.947 6.827 17.067 22.187 11.947 34.134-5.12 10.24-13.654 15.36-23.894 15.36zm-428.373 0c-10.24 0-18.773-5.12-22.187-13.654-6.826-11.946-1.706-27.306 11.947-34.133l90.453-44.373c11.947-6.827 27.307-1.707 34.134 11.946 6.826 11.947 1.706 27.307-11.947 34.134l-90.453 44.373c-5.12 1.707-8.534 1.707-11.947 1.707zm384 226.986c-8.533 0-18.773-5.12-22.187-13.653-1.706-3.413-40.96-76.8-134.826-76.8-95.574 0-134.827 75.093-134.827 76.8-6.827 11.947-22.187 17.067-34.133 11.947-11.947-6.827-17.067-22.187-11.947-34.134 1.707-5.12 54.613-104.106 180.907-104.106s179.2 100.693 180.906 104.106c6.827 11.947 1.707 27.307-11.946 34.134-5.12 0-8.534 1.706-11.947 1.706z"
          fill="#ffb02a"/>
</svg>