<?xml version="1.0" standalone="no"?><!DOCTYPE svg PUBLIC "-//W3C//DTD SVG 1.1//EN" "http://www.w3.org/Graphics/SVG/1.1/DTD/svg11.dtd"><svg t="1661389538918" class="icon" viewBox="0 0 1024 1024" version="1.1" xmlns="http://www.w3.org/2000/svg" p-id="17028" xmlns:xlink="http://www.w3.org/1999/xlink" width="24" height="24"><defs><style type="text/css">@font-face { font-family: feedback-iconfont; src: url("//at.alicdn.com/t/font_1031158_u69w8yhxdu.woff2?t=1630033759944") format("woff2"), url("//at.alicdn.com/t/font_1031158_u69w8yhxdu.woff?t=1630033759944") format("woff"), url("//at.alicdn.com/t/font_1031158_u69w8yhxdu.ttf?t=1630033759944") format("truetype"); }
</style></defs><path d="M512 989.866667C249.173333 989.866667 34.133333 774.826667 34.133333 512S249.173333 34.133333 512 34.133333s477.866667 215.04 477.866667 477.866667c0 264.533333-213.333333 477.866667-477.866667 477.866667z m0-902.826667c-235.52 0-426.666667 191.146667-426.666667 426.666667s191.146667 426.666667 426.666667 426.666666 426.666667-191.146667 426.666667-426.666666-191.146667-426.666667-426.666667-426.666667z" fill="#4c71dd" p-id="17029"></path><path d="M411.306667 426.666667c-11.946667 0-22.186667-8.533333-25.6-20.48-11.946667-54.613333-30.72-66.56-34.133334-68.266667h-3.413333v-1.706667c-17.066667-5.12-27.306667 0-32.426667 3.413334-18.773333 13.653333-25.6 49.493333-27.306666 61.44-1.706667 13.653333-13.653333 23.893333-27.306667 23.893333-13.653333-1.706667-23.893333-13.653333-23.893333-27.306667 0-6.826667 6.826667-69.973333 47.786666-98.986666 13.653333-10.24 39.253333-20.48 73.386667-11.946667 13.653333 1.706667 59.733333 17.066667 76.8 109.226667 3.413333 13.653333-6.826667 27.306667-20.48 30.72h-3.413333zM769.706667 426.666667c-11.946667 0-22.186667-8.533333-25.6-20.48-11.946667-54.613333-30.72-66.56-34.133334-68.266667h-3.413333v-1.706667c-17.066667-5.12-27.306667 0-32.426667 3.413334-18.773333 13.653333-25.6 49.493333-27.306666 61.44-1.706667 13.653333-13.653333 23.893333-27.306667 23.893333-13.653333-1.706667-23.893333-13.653333-23.893333-27.306667 0-6.826667 6.826667-69.973333 47.786666-98.986666 13.653333-10.24 39.253333-20.48 73.386667-11.946667 13.653333 1.706667 59.733333 17.066667 76.8 109.226667 3.413333 13.653333-6.826667 27.306667-20.48 30.72h-3.413333zM517.12 851.626667h-6.826667c-85.333333-5.12-136.533333-97.28-139.946666-100.693334-6.826667-11.946667-1.706667-27.306667 10.24-34.133333 11.946667-6.826667 27.306667-1.706667 34.133333 10.24 0 1.706667 40.96 71.68 97.28 75.093333 35.84 1.706667 73.386667-23.893333 112.64-76.8 8.533333-11.946667 23.893333-13.653333 35.84-5.12 11.946667 8.533333 13.653333 23.893333 5.12 35.84-46.08 63.146667-97.28 95.573333-148.48 95.573334z" fill="#4c71dd" p-id="17030"></path></svg>