<svg class="icon" viewBox="0 0 1024 1024" xmlns="http://www.w3.org/2000/svg" width="24" height="24">
    <path d="M512 989.867C249.173 989.867 34.133 776.533 34.133 512c0-262.827 215.04-477.867 477.867-477.867S989.867 249.173 989.867 512c0 264.533-215.04 477.867-477.867 477.867zm0-904.534C276.48 85.333 85.333 276.48 85.333 512S276.48 938.667 512 938.667 938.667 747.52 938.667 512 747.52 85.333 512 85.333z"
          fill="#54cea5"/>
    <path d="M512 786.773c-128 0-179.2-100.693-180.907-104.106-3.413-8.534-3.413-17.067 1.707-25.6 5.12-6.827 13.653-11.947 22.187-11.947h317.44c8.533 0 17.066 5.12 22.186 11.947 5.12 6.826 5.12 17.066 1.707 25.6C691.2 686.08 640 786.773 512 786.773zM406.187 696.32c22.186 18.773 56.32 39.253 105.813 39.253s83.627-20.48 105.813-39.253H406.187zm286.72-180.907c-6.827 0-13.654-1.706-18.774-6.826l-68.266-68.267c-10.24-10.24-10.24-25.6 0-35.84l68.266-68.267c10.24-10.24 25.6-10.24 35.84 0 10.24 10.24 10.24 25.6 0 35.84l-49.493 49.494 49.493 49.493c10.24 10.24 10.24 25.6 0 35.84-3.413 6.827-10.24 8.533-17.066 8.533zm-361.814 0c-6.826 0-13.653-1.706-18.773-6.826-10.24-10.24-10.24-25.6 0-35.84l49.493-49.494-49.493-49.493c-10.24-10.24-10.24-25.6 0-35.84 10.24-10.24 25.6-10.24 35.84 0l68.267 68.267c10.24 10.24 10.24 25.6 0 35.84l-68.267 68.266c-3.413 3.414-10.24 5.12-17.067 5.12z"
          fill="#54cea5"/>
</svg>