<svg class="icon" viewBox="0 0 1024 1024" xmlns="http://www.w3.org/2000/svg" width="24" height="24">
    <path d="M512 988.16c-262.827 0-477.867-215.04-477.867-477.867S249.173 32.427 512 32.427s477.867 215.04 477.867 477.866S776.533 988.16 512 988.16zm0-904.533c-235.52 0-426.667 191.146-426.667 426.666S276.48 936.96 512 936.96s426.667-191.147 426.667-426.667S747.52 83.627 512 83.627z"
          fill="#ee3837"/>
    <path d="M692.907 512c-6.827 0-13.654-1.707-18.774-6.827l-68.266-68.266c-10.24-10.24-10.24-25.6 0-35.84l68.266-68.267c10.24-10.24 25.6-10.24 35.84 0s10.24 25.6 0 35.84l-49.493 49.493 49.493 49.494c10.24 10.24 10.24 25.6 0 35.84-3.413 6.826-10.24 8.533-17.066 8.533zm-361.814 0c-6.826 0-13.653-1.707-18.773-6.827-10.24-10.24-10.24-25.6 0-35.84l49.493-49.493-49.493-49.493c-10.24-10.24-10.24-25.6 0-35.84 10.24-10.24 25.6-10.24 35.84 0l68.267 68.266c5.12 5.12 6.826 11.947 6.826 18.774s-3.413 13.653-6.826 18.773l-68.267 68.267c-3.413 1.706-10.24 3.413-17.067 3.413zm317.44 249.173c-6.826 0-13.653-3.413-18.773-6.826l-49.493-49.494-49.494 49.494c-10.24 10.24-27.306 10.24-35.84 0l-49.493-49.494-49.493 49.494c-10.24 10.24-27.307 10.24-35.84 0L291.84 686.08c-10.24-10.24-10.24-25.6 0-35.84s25.6-10.24 35.84 0l49.493 49.493 49.494-49.493c10.24-10.24 27.306-10.24 35.84 0L512 699.733l49.493-49.493c10.24-10.24 27.307-10.24 35.84 0l51.2 49.493 49.494-49.493c10.24-10.24 25.6-10.24 35.84 0s10.24 25.6 0 35.84L665.6 754.347c-3.413 5.12-10.24 6.826-17.067 6.826z"
          fill="#ee3837"/>
</svg>