<svg class="icon" viewBox="0 0 1024 1024" xmlns="http://www.w3.org/2000/svg" width="24" height="24">
    <path d="M512 989.867c-262.827 0-477.867-215.04-477.867-477.867S249.173 34.133 512 34.133 989.867 249.173 989.867 512c0 264.533-213.334 477.867-477.867 477.867zm0-902.827c-235.52 0-426.667 191.147-426.667 426.667S276.48 940.373 512 940.373s426.667-191.146 426.667-426.666S747.52 87.04 512 87.04z"
          fill="#4c71dd"/>
    <path d="M411.307 426.667c-11.947 0-22.187-8.534-25.6-20.48-11.947-54.614-30.72-66.56-34.134-68.267h-3.413v-1.707c-17.067-5.12-27.307 0-32.427 3.414-18.773 13.653-25.6 49.493-27.306 61.44-1.707 13.653-13.654 23.893-27.307 23.893-13.653-1.707-23.893-13.653-23.893-27.307 0-6.826 6.826-69.973 47.786-98.986 13.654-10.24 39.254-20.48 73.387-11.947 13.653 1.707 59.733 17.067 76.8 109.227 3.413 13.653-6.827 27.306-20.48 30.72h-3.413zm358.4 0c-11.947 0-22.187-8.534-25.6-20.48-11.947-54.614-30.72-66.56-34.134-68.267h-3.413v-1.707c-17.067-5.12-27.307 0-32.427 3.414-18.773 13.653-25.6 49.493-27.306 61.44-1.707 13.653-13.654 23.893-27.307 23.893-13.653-1.707-23.893-13.653-23.893-27.307 0-6.826 6.826-69.973 47.786-98.986 13.654-10.24 39.254-20.48 73.387-11.947 13.653 1.707 59.733 17.067 76.8 109.227 3.413 13.653-6.827 27.306-20.48 30.72h-3.413zM517.12 851.627h-6.827c-85.333-5.12-136.533-97.28-139.946-100.694-6.827-11.946-1.707-27.306 10.24-34.133 11.946-6.827 27.306-1.707 34.133 10.24 0 1.707 40.96 71.68 97.28 75.093 35.84 1.707 73.387-23.893 112.64-76.8 8.533-11.946 23.893-13.653 35.84-5.12 11.947 8.534 13.653 23.894 5.12 35.84-46.08 63.147-97.28 95.574-148.48 95.574z"
          fill="#4c71dd"/>
</svg>