<?xml version="1.0" standalone="no"?><!DOCTYPE svg PUBLIC "-//W3C//DTD SVG 1.1//EN" "http://www.w3.org/Graphics/SVG/1.1/DTD/svg11.dtd"><svg t="1661389500496" class="icon" viewBox="0 0 1024 1024" version="1.1" xmlns="http://www.w3.org/2000/svg" p-id="16759" width="24" height="24" xmlns:xlink="http://www.w3.org/1999/xlink"><defs><style type="text/css">@font-face { font-family: feedback-iconfont; src: url("//at.alicdn.com/t/font_1031158_u69w8yhxdu.woff2?t=1630033759944") format("woff2"), url("//at.alicdn.com/t/font_1031158_u69w8yhxdu.woff?t=1630033759944") format("woff"), url("//at.alicdn.com/t/font_1031158_u69w8yhxdu.ttf?t=1630033759944") format("truetype"); }
</style></defs><path d="M512 989.866667C249.173333 989.866667 34.133333 774.826667 34.133333 512S249.173333 34.133333 512 34.133333s477.866667 215.04 477.866667 477.866667-215.04 477.866667-477.866667 477.866667z m0-904.533334C276.48 85.333333 85.333333 276.48 85.333333 512s191.146667 426.666667 426.666667 426.666667 426.666667-191.146667 426.666667-426.666667S747.52 85.333333 512 85.333333z" fill="#ffb02a" p-id="16760"></path><path d="M715.093333 559.786667c-3.413333 0-8.533333-1.706667-11.946666-3.413334L614.4 512c-11.946667-6.826667-17.066667-22.186667-11.946667-34.133333 6.826667-11.946667 22.186667-17.066667 34.133334-11.946667l90.453333 44.373333c11.946667 6.826667 17.066667 22.186667 11.946667 34.133334-5.12 10.24-13.653333 15.36-23.893334 15.36zM286.72 559.786667c-10.24 0-18.773333-5.12-22.186667-13.653334-6.826667-11.946667-1.706667-27.306667 11.946667-34.133333l90.453333-44.373333c11.946667-6.826667 27.306667-1.706667 34.133334 11.946666 6.826667 11.946667 1.706667 27.306667-11.946667 34.133334l-90.453333 44.373333c-5.12 1.706667-8.533333 1.706667-11.946667 1.706667zM670.72 786.773333c-8.533333 0-18.773333-5.12-22.186667-13.653333-1.706667-3.413333-40.96-76.8-134.826666-76.8-95.573333 0-134.826667 75.093333-134.826667 76.8-6.826667 11.946667-22.186667 17.066667-34.133333 11.946667-11.946667-6.826667-17.066667-22.186667-11.946667-34.133334 1.706667-5.12 54.613333-104.106667 180.906667-104.106666s179.2 100.693333 180.906666 104.106666c6.826667 11.946667 1.706667 27.306667-11.946666 34.133334-5.12 0-8.533333 1.706667-11.946667 1.706666z" fill="#ffb02a" p-id="16761"></path></svg>