<svg id="_1" xmlns="http://www.w3.org/2000/svg" viewBox="0 0 24 24">
    <path fill="#fff"
          d="M4.1 17.2h1.6c.1 0 .2 0 .3.1.2.2.3.4.5.6.8.8 1.7 1.4 2.6 1.8 1 .4 2.1.7 3.2.7s2.2-.2 3.2-.7c1-.4 1.9-1 2.6-1.8.8-.8 1.4-1.6 1.8-2.6.4-1 .7-2.1.7-3.2s-.2-2.2-.7-3.2c-.4-1-1-1.9-1.8-2.6-.8-.8-1.7-1.4-2.6-1.8-1-.4-2.1-.7-3.2-.7s-2.2.2-3.2.7c-1 .4-1.9 1-2.6 1.8-.1 0-.3.2-.5.4-.1.1-.2.1-.3.1H4.1c-.1 0-.2-.2-.2-.3 1.8-2.8 4.9-4.6 8.5-4.6 5.6 0 10.1 4.6 10.1 10.2-.1 5.5-4.6 10-10.1 10-3.6 0-6.7-1.8-8.5-4.6-.1-.2 0-.3.2-.3z"/>
    <path fill="#fff"
          d="M13.1 11.9L9.8 9.2c-.1-.1-.3 0-.3.1v1.8H2.1c-.1 0-.2.1-.2.2v1.3c0 .1.1.2.2.2h7.4v1.8c0 .2.2.2.3.1l3.3-2.6c.1 0 .1-.2 0-.2z"/>
</svg>